<mxfile host="app.diagrams.net" modified="2021-08-30T12:41:37.507Z" agent="5.0 (X11; Linux x86_64) AppleWebKit/537.36 (KHTML, like Gecko) Chrome/90.0.4430.212 Safari/537.36" etag="eVM1C2Z-yh4TQ-q9OS3p" version="15.0.3" type="github">
  <diagram id="i2DFjdIRYu7rb-eW8avW" name="Page-1">
    <mxGraphModel dx="2188" dy="1088" grid="1" gridSize="10" guides="1" tooltips="1" connect="1" arrows="1" fold="1" page="1" pageScale="1" pageWidth="850" pageHeight="1100" math="0" shadow="0">
      <root>
        <mxCell id="0" />
        <mxCell id="1" parent="0" />
      </root>
    </mxGraphModel>
  </diagram>
</mxfile>
